<svg xmlns="http://www.w3.org/2000/svg" xmlns:xlink="http://www.w3.org/1999/xlink"><symbol id="app-store-text" viewBox="0 0 91 20">
<path d="M9.59619 12.1696H3.91629L2.55227 16.2324H0.146484L5.5264 1.20117H8.02593L13.4058 16.2324H10.959L9.59619 12.1696ZM4.50455 10.2949H9.00681L6.78735 3.70128H6.72523L4.50455 10.2949Z" fill="white"/>
<path d="M25.0247 10.753C25.0247 14.1586 23.2177 16.3466 20.4909 16.3466C19.8001 16.383 19.1131 16.2225 18.5086 15.8834C17.9041 15.5443 17.4064 15.0404 17.0726 14.4292H17.021V19.8573H14.791V5.27294H16.9496V7.09569H16.9906C17.3397 6.48748 17.8458 5.98613 18.4549 5.64497C19.0641 5.30382 19.7535 5.13562 20.4499 5.15827C23.2071 5.15828 25.0247 7.35692 25.0247 10.753ZM22.7326 10.753C22.7326 8.53428 21.5959 7.0756 19.8616 7.0756C18.1577 7.0756 17.0117 8.565 17.0117 10.753C17.0117 12.9611 18.1577 14.4399 19.8616 14.4399C21.5959 14.4399 22.7326 12.9919 22.7326 10.753Z" fill="white"/>
<path d="M36.9817 10.753C36.9817 14.1586 35.1748 16.3466 32.4479 16.3466C31.7571 16.383 31.0702 16.2225 30.4656 15.8834C29.8611 15.5443 29.3634 15.0404 29.0297 14.4292H28.9781V19.8573H26.748V5.27292H28.9066V7.09568H28.9476C29.2967 6.48747 29.8028 5.98612 30.4119 5.64497C31.0211 5.30381 31.7105 5.13561 32.4069 5.15827C35.1642 5.15827 36.9817 7.35691 36.9817 10.753ZM34.6896 10.753C34.6896 8.53427 33.5529 7.07558 31.8186 7.07558C30.1148 7.07558 28.9687 8.56499 28.9687 10.753C28.9687 12.9611 30.1148 14.4399 31.8186 14.4399C33.553 14.4399 34.6896 12.9918 34.6896 10.753H34.6896Z" fill="white"/>
<path d="M44.8853 12.045C45.0506 13.5356 46.4861 14.5143 48.4477 14.5143C50.3273 14.5143 51.6796 13.5355 51.6796 12.1915C51.6796 11.0248 50.864 10.3262 48.9328 9.84744L47.0017 9.37816C44.2654 8.71147 42.9951 7.42065 42.9951 5.32602C42.9951 2.73255 45.2357 0.951172 48.4172 0.951172C51.5659 0.951172 53.7245 2.73255 53.7972 5.32602H51.546C51.4113 3.82597 50.182 2.92051 48.3856 2.92051C46.5891 2.92051 45.3599 3.83662 45.3599 5.16999C45.3599 6.23267 46.145 6.85799 48.0657 7.33668L49.7074 7.74331C52.7647 8.47265 54.035 9.71149 54.035 11.9101C54.035 14.7222 51.8144 16.4835 48.2824 16.4835C44.9779 16.4835 42.7467 14.7636 42.6025 12.0449L44.8853 12.045Z" fill="white"/>
<path d="M58.8475 2.68262V5.27608H60.9135V7.05746H58.8475V13.099C58.8475 14.0376 59.2612 14.475 60.1694 14.475C60.4146 14.4706 60.6595 14.4533 60.9029 14.4229V16.1936C60.4946 16.2706 60.0796 16.3055 59.6643 16.2977C57.4648 16.2977 56.607 15.4643 56.607 13.3389V7.05746H55.0273V5.27608H56.6069V2.68262H58.8475Z" fill="white"/>
<path d="M62.1104 10.7535C62.1104 7.30541 64.1236 5.13867 67.2629 5.13867C70.4128 5.13867 72.4167 7.30536 72.4167 10.7535C72.4167 14.2111 70.4234 16.3683 67.2629 16.3683C64.1036 16.3683 62.1104 14.2111 62.1104 10.7535ZM70.1445 10.7535C70.1445 8.38818 69.0699 6.99216 67.2629 6.99216C65.4559 6.99216 64.3825 8.39882 64.3825 10.7535C64.3825 13.1283 65.4559 14.5137 67.2629 14.5137C69.0699 14.5137 70.1444 13.1283 70.1444 10.7535H70.1445Z" fill="white"/>
<path d="M74.2549 5.27283H76.3818V7.13812H76.4334C76.5773 6.55555 76.9156 6.04071 77.3915 5.68014C77.8674 5.31957 78.4518 5.13525 79.0466 5.15815C79.3036 5.15725 79.5598 5.1854 79.8106 5.24209V7.34617C79.4862 7.24617 79.1477 7.20025 78.8086 7.21024C78.4847 7.19698 78.1617 7.2546 77.8619 7.37914C77.5621 7.50367 77.2926 7.69218 77.0718 7.93172C76.851 8.17125 76.6843 8.45614 76.583 8.76682C76.4817 9.07751 76.4482 9.40662 76.4849 9.73158V16.2318H74.2549L74.2549 5.27283Z" fill="white"/>
<path d="M90.0931 13.0136C89.7931 15.003 87.8724 16.3683 85.4151 16.3683C82.2546 16.3683 80.293 14.2323 80.293 10.8055C80.293 7.36806 82.2652 5.13867 85.3213 5.13867C88.3271 5.13867 90.2173 7.22147 90.2173 10.5443V11.315H82.5441V11.4509C82.5087 11.8542 82.5587 12.2605 82.6909 12.6429C82.8231 13.0252 83.0345 13.3747 83.3109 13.6683C83.5873 13.9619 83.9225 14.1928 84.2942 14.3457C84.6658 14.4986 85.0655 14.5699 85.4666 14.555C85.9936 14.6048 86.5225 14.4817 86.9745 14.204C87.4265 13.9263 87.7776 13.5088 87.9756 13.0136L90.0931 13.0136ZM82.5546 9.74283H87.9861C88.0061 9.38019 87.9516 9.01729 87.826 8.6769C87.7004 8.33651 87.5064 8.02599 87.2562 7.76482C87.0059 7.50365 86.7049 7.29747 86.372 7.15921C86.039 7.02096 85.6813 6.95362 85.3213 6.96142C84.9582 6.95924 84.5982 7.02962 84.2622 7.16851C83.9261 7.3074 83.6207 7.51204 83.3635 7.77063C83.1062 8.02922 82.9023 8.33664 82.7635 8.67514C82.6247 9.01364 82.5537 9.37652 82.5546 9.74284V9.74283Z" fill="white"/>
</symbol><symbol id="arrow-down" viewBox="0 0 14 8">
<path d="M7.00023 5.17266L11.9502 0.222656L13.3642 1.63666L7.00023 8.00066L0.63623 1.63666L2.05023 0.222656L7.00023 5.17266Z" fill="#090909"/>
</symbol><symbol id="google-play-text" viewBox="0 0 106 22">
<path d="M33.8004 5.86961C30.8663 5.86961 28.4748 8.10018 28.4748 11.1753C28.4748 14.2305 30.8663 16.4811 33.8004 16.4811C36.7346 16.4811 39.1261 14.2305 39.1261 11.1753C39.1261 8.10018 36.7346 5.86961 33.8004 5.86961ZM33.8004 14.3915C32.1924 14.3915 30.8051 13.0653 30.8051 11.1753C30.8051 9.26537 32.1924 7.95921 33.8004 7.95921C35.4085 7.95921 36.7945 9.26537 36.7945 11.1753C36.7945 13.0641 35.4085 14.3915 33.8004 14.3915ZM22.181 5.86961C19.2468 5.86961 16.8553 8.10018 16.8553 11.1753C16.8553 14.2305 19.2468 16.4811 22.181 16.4811C25.1152 16.4811 27.5067 14.2305 27.5067 11.1753C27.5079 8.10018 25.1152 5.86961 22.181 5.86961ZM22.181 14.3915C20.5729 14.3915 19.1869 13.0653 19.1869 11.1753C19.1869 9.26537 20.5742 7.95921 22.181 7.95921C23.7891 7.95921 25.1751 9.26537 25.1751 11.1753C25.1763 13.0641 23.7891 14.3915 22.181 14.3915ZM8.36091 7.49763V9.74816H13.7477C13.5868 11.0144 13.1651 11.9388 12.5214 12.5825C11.738 13.366 10.5116 14.2305 8.36091 14.2305C5.04499 14.2305 2.45263 11.5571 2.45263 8.24115C2.45263 4.92523 5.04499 2.25178 8.36091 2.25178C10.1499 2.25178 11.456 2.95539 12.4204 3.85984L14.0085 2.27174C12.6624 0.985544 10.8734 0 8.36091 0C3.81867 0 0 3.69766 0 8.2399C0 12.7821 3.81867 16.4798 8.36091 16.4798C10.8123 16.4798 12.6624 15.6764 14.1095 14.1681C15.5966 12.6811 16.0594 10.5902 16.0594 8.90234C16.0594 8.37963 16.0195 7.89683 15.9384 7.49513H8.36091V7.49763ZM64.8838 9.24541C64.4422 8.05901 63.0948 5.86836 60.3415 5.86836C57.6082 5.86836 55.3377 8.01909 55.3377 11.1741C55.3377 14.1482 57.5883 16.4798 60.6035 16.4798C63.035 16.4798 64.4422 14.9928 65.0247 14.1282L63.2158 12.9219C62.6133 13.8064 61.7887 14.389 60.6035 14.389C59.4171 14.389 58.5738 13.8463 58.0311 12.7809L65.1258 9.84672L64.8838 9.24541ZM57.6481 11.0144C57.5883 8.96472 59.2362 7.91929 60.4214 7.91929C61.3458 7.91929 62.1292 8.38088 62.3912 9.04456L57.6481 11.0144ZM51.8796 16.1592H54.2112V0.563881H51.8796V16.1592ZM48.0609 7.05475H47.9811C47.4583 6.43224 46.4541 5.86836 45.1879 5.86836C42.5344 5.86836 40.1029 8.19998 40.1029 11.194C40.1029 14.1681 42.5344 16.4798 45.1879 16.4798C46.4541 16.4798 47.4583 15.9172 47.9811 15.2735H48.0609V16.0369C48.0609 18.0667 46.9756 19.152 45.2265 19.152C43.7994 19.152 42.9149 18.1265 42.5531 17.2633L40.5234 18.1078C41.106 19.515 42.6541 21.2429 45.2265 21.2429C47.9599 21.2429 50.2715 19.6348 50.2715 15.7163V6.19022H48.0609V7.05475ZM45.3887 14.3915C43.7807 14.3915 42.4346 13.0454 42.4346 11.1953C42.4346 9.3265 43.7807 7.95921 45.3887 7.95921C46.9768 7.95921 48.2218 9.32525 48.2218 11.1953C48.2218 13.0441 46.9768 14.3915 45.3887 14.3915ZM75.8046 0.563881H70.2269V16.1592H72.5536V10.2509H75.8034C78.3832 10.2509 80.9195 8.38337 80.9195 5.40802C80.9195 2.43267 78.3845 0.563881 75.8046 0.563881ZM75.8645 8.08022H72.5536V2.73457H75.8645C77.6048 2.73457 78.5928 4.17547 78.5928 5.40802C78.5928 6.61563 77.6048 8.08022 75.8645 8.08022ZM90.251 5.84091C88.5656 5.84091 86.8203 6.58319 86.0979 8.22868L88.1651 9.09196C88.6067 8.22867 89.4288 7.94798 90.2921 7.94798C91.496 7.94798 92.7198 8.6703 92.7398 9.954V10.1149C92.3181 9.87416 91.4149 9.51238 90.3121 9.51238C88.0853 9.51238 85.8173 10.7362 85.8173 13.0242C85.8173 15.1113 87.6436 16.4549 89.6896 16.4549C91.2552 16.4549 92.1173 15.7525 92.6587 14.9304H92.7385V16.1342H94.9853V10.1549C94.9853 7.38535 92.9194 5.84091 90.251 5.84091ZM89.969 14.3877C89.2068 14.3877 88.1426 14.006 88.1426 13.0641C88.1426 11.8602 89.4675 11.3986 90.6102 11.3986C91.6332 11.3986 92.1148 11.6194 92.7373 11.9201C92.5576 13.3647 91.3139 14.3877 89.969 14.3877ZM103.172 6.18149L100.503 12.9431H100.423L97.655 6.18149H95.1475L99.3005 15.6315L96.9327 20.8886H99.3604L105.761 6.18149H103.172ZM82.2044 16.1592H84.5323V0.563881H82.2044V16.1592Z" fill="white"/>
</symbol><symbol id="icon-close" viewBox="0 0 20 20"><path d="M.293 18.291a1 1 0 101.414 1.414L10 11.413l8.292 8.292a1 1 0 101.414-1.414l-8.292-8.292 8.292-8.292A1 1 0 1018.291.293L9.999 8.585 1.707.293A1 1 0 10.293 1.707L8.585 10 .293 18.291z"/></symbol></svg>